<svg width="1440" height="900" viewBox="0 0 1440 900" fill="none" xmlns="http://www.w3.org/2000/svg">
<mask id="mask0_0_1" style="mask-type:alpha" maskUnits="userSpaceOnUse" x="166" y="-295" width="1480" height="1417">
<rect x="166" y="386.119" width="860" height="1205" transform="rotate(-52.3727 166 386.119)" fill="url(#paint0_linear_0_1)"/>
</mask>
<g mask="url(#mask0_0_1)">
<path d="M1085.99 150.859C1290.25 308.313 1340.22 585.978 1197.6 770.989C1182.65 790.393 1166.11 808.076 1148.34 823.922C1240.16 643.06 1180.95 405.877 998.075 264.907C815.202 123.938 570.839 127.108 419.224 261.876C430.026 240.657 442.918 220.165 457.876 200.761C600.493 15.7502 881.733 -6.59438 1085.99 150.859Z" fill="#7326F1"/>
<g filter="url(#filter0_f_0_1)">
<path d="M1076.22 163.531C1280.48 320.985 1340.22 585.978 1197.6 770.989C1182.65 790.393 1166.11 808.076 1148.34 823.922C1240.16 643.06 1190.72 393.205 1007.84 252.235C824.971 111.266 570.839 127.108 419.224 261.876C430.026 240.657 442.918 220.165 457.876 200.761C600.493 15.7502 871.965 6.07761 1076.22 163.531Z" fill="#7326F1"/>
</g>
<g filter="url(#filter1_f_0_1)">
<path d="M1071.34 169.867C1275.59 327.321 1336.79 603.534 1194.17 788.545C1179.21 807.949 1162.68 825.632 1144.91 841.478C1236.73 660.616 1195.6 386.869 1012.73 245.899C829.855 104.93 558.81 144.35 407.196 279.118C417.997 257.899 430.889 237.408 445.847 218.004C588.465 32.9926 867.081 12.4135 1071.34 169.867Z" fill="#7326F1"/>
</g>
<g filter="url(#filter2_f_0_1)">
<path d="M1071.34 169.867C1275.59 327.321 1336.79 603.534 1194.17 788.545C1179.21 807.949 1162.68 825.632 1144.91 841.478C1236.73 660.616 1195.6 386.869 1012.73 245.899C829.855 104.93 558.81 144.35 407.196 279.118C417.997 257.899 430.889 237.408 445.847 218.004C588.465 32.9926 867.081 12.4135 1071.34 169.867Z" fill="#7326F1"/>
</g>
<g filter="url(#filter3_f_0_1)">
<path d="M1071.34 169.867C1275.59 327.321 1336.79 603.534 1194.17 788.545C1179.21 807.949 1162.68 825.632 1144.91 841.478C1236.73 660.616 1195.6 386.869 1012.73 245.899C829.855 104.93 558.81 144.35 407.196 279.118C417.997 257.899 430.889 237.408 445.847 218.004C588.465 32.9926 867.081 12.4135 1071.34 169.867Z" fill="#7326F1"/>
</g>
<g filter="url(#filter4_f_0_1)">
<path d="M1057.54 214.789C1261.8 372.242 1336.79 603.534 1194.17 788.545C1179.21 807.949 1162.68 825.632 1144.91 841.478C1236.73 660.616 1216.64 370.258 1028.6 225.307C792.998 43.6898 558.81 144.35 407.196 279.118C417.997 257.899 430.889 237.408 445.847 218.004C588.465 32.9926 853.286 57.3351 1057.54 214.789Z" fill="#7326F1"/>
</g>
<g filter="url(#filter5_f_0_1)">
<path d="M1057.54 214.789C1261.8 372.242 1383.1 603.246 1240.48 788.257C1225.52 807.661 1130.78 837.031 1113.01 852.878C1204.83 672.016 1216.64 370.258 1028.6 225.307C792.998 43.6898 564.896 178.714 413.282 313.482C431.735 327.707 381.165 238.851 396.123 219.447C538.741 34.4355 853.286 57.3352 1057.54 214.789Z" fill="#7326F1"/>
</g>
<g filter="url(#filter6_f_0_1)">
<path d="M1057.54 214.789C1261.8 372.242 1383.1 603.246 1240.48 788.257C1225.52 807.661 1130.78 837.031 1113.01 852.878C1204.83 672.016 1216.64 370.258 1028.6 225.307C792.998 43.6898 564.896 178.714 413.282 313.482C431.735 327.707 381.165 238.851 396.123 219.447C538.741 34.4355 853.286 57.3352 1057.54 214.789Z" fill="#7326F1"/>
</g>
<g filter="url(#filter7_f_0_1)">
<path d="M1057.54 214.789C1261.8 372.242 1383.1 603.246 1240.48 788.257C1225.52 807.661 1130.78 837.031 1113.01 852.878C1204.83 672.016 1216.64 370.258 1028.6 225.307C792.998 43.6898 564.896 178.714 413.282 313.482C431.735 327.707 381.165 238.851 396.123 219.447C538.741 34.4355 853.286 57.3352 1057.54 214.789Z" fill="#7326F1"/>
</g>
</g>
<mask id="mask1_0_1" style="mask-type:alpha" maskUnits="userSpaceOnUse" x="-147" y="-188" width="1475" height="1349">
<rect x="1327.87" y="416.825" width="860" height="1205" transform="rotate(120.128 1327.87 416.825)" fill="url(#paint1_linear_0_1)"/>
</mask>
<g mask="url(#mask1_0_1)">
<path d="M446.459 770.148C223.399 640.7 137.612 371.933 254.863 169.891C267.16 148.7 281.246 129.01 296.797 110.98C229.369 302.279 319.03 529.706 518.737 645.601C718.445 761.497 960.304 726.46 1093.03 573.056C1085.09 595.504 1074.99 617.502 1062.69 638.693C945.437 840.735 669.519 899.596 446.459 770.148Z" fill="#BE42C9"/>
<g filter="url(#filter8_f_0_1)">
<path d="M454.49 756.309C231.43 626.862 137.612 371.933 254.863 169.891C267.16 148.7 281.246 129.01 296.797 110.98C229.369 302.279 310.999 543.544 510.706 659.44C710.414 775.335 960.304 726.46 1093.03 573.056C1085.09 595.504 1074.99 617.502 1062.69 638.693C945.437 840.735 677.55 885.757 454.49 756.309Z" fill="#BE42C9"/>
</g>
<g filter="url(#filter9_f_0_1)">
<path d="M458.506 749.39C235.446 619.942 138.724 354.079 255.975 152.037C268.272 130.846 282.358 111.156 297.908 93.1261C230.481 284.425 306.983 550.463 506.691 666.359C706.398 782.254 969.979 707.795 1102.71 554.391C1094.77 576.839 1084.66 598.837 1072.36 620.028C955.113 822.07 681.565 878.838 458.506 749.39Z" fill="#BE42C9"/>
</g>
<g filter="url(#filter10_f_0_1)">
<path d="M458.506 749.39C235.446 619.942 138.724 354.079 255.975 152.037C268.272 130.846 282.358 111.156 297.908 93.1261C230.481 284.425 306.983 550.463 506.691 666.359C706.398 782.254 969.979 707.795 1102.71 554.391C1094.77 576.839 1084.66 598.837 1072.36 620.028C955.113 822.07 681.565 878.838 458.506 749.39Z" fill="#BE42C9"/>
</g>
<g filter="url(#filter11_f_0_1)">
<path d="M458.506 749.39C235.446 619.942 138.724 354.079 255.975 152.037C268.272 130.846 282.358 111.156 297.908 93.1261C230.481 284.425 306.983 550.463 506.691 666.359C706.398 782.254 969.979 707.795 1102.71 554.391C1094.77 576.839 1084.66 598.837 1072.36 620.028C955.113 822.07 681.565 878.838 458.506 749.39Z" fill="#BE42C9"/>
</g>
<g filter="url(#filter12_f_0_1)">
<path d="M466.319 703.052C243.259 573.605 138.724 354.079 255.975 152.037C268.272 130.846 282.358 111.156 297.908 93.1261C230.481 284.425 288.293 569.678 493.641 688.846C750.933 838.16 969.979 707.795 1102.71 554.391C1094.77 576.839 1084.66 598.837 1072.36 620.028C955.113 822.07 689.379 832.5 466.319 703.052Z" fill="#BE42C9"/>
</g>
<g filter="url(#filter13_f_0_1)">
<path d="M466.319 703.052C243.259 573.605 92.8498 360.409 210.1 158.366C222.398 137.176 312.49 95.6918 328.041 77.6614C260.614 268.96 288.293 569.678 493.641 688.846C750.933 838.16 959.46 674.519 1092.19 521.116C1072.04 509.421 1133.77 590.917 1121.47 612.107C1004.22 814.15 689.379 832.5 466.319 703.052Z" fill="#BE42C9"/>
</g>
<g filter="url(#filter14_f_0_1)">
<path d="M466.319 703.052C243.259 573.605 92.8498 360.409 210.1 158.366C222.398 137.176 312.49 95.6918 328.041 77.6614C260.614 268.96 288.293 569.678 493.641 688.846C750.933 838.16 959.46 674.519 1092.19 521.116C1072.04 509.421 1133.77 590.917 1121.47 612.107C1004.22 814.15 689.379 832.5 466.319 703.052Z" fill="#BE42C9"/>
</g>
<g filter="url(#filter15_f_0_1)">
<path d="M466.319 703.052C243.259 573.605 92.8498 360.409 210.1 158.366C222.398 137.176 312.49 95.6918 328.041 77.6614C260.614 268.96 288.293 569.678 493.641 688.846C750.933 838.16 959.46 674.519 1092.19 521.116C1072.04 509.421 1133.77 590.917 1121.47 612.107C1004.22 814.15 689.379 832.5 466.319 703.052Z" fill="#BE42C9"/>
</g>
</g>
<g filter="url(#filter16_f_0_1)">
<mask id="mask2_0_1" style="mask-type:alpha" maskUnits="userSpaceOnUse" x="115" y="199" width="394" height="598">
<path opacity="0.8" d="M309.663 199.384L115.856 310.857L175.796 568.953L508.895 796.468L498.113 599.206L507.104 548.511L354.644 230.107L309.663 199.384Z" fill="url(#paint2_linear_0_1)"/>
</mask>
<g mask="url(#mask2_0_1)">
<g opacity="0.8">
<path d="M531.326 766.832C483.754 756.463 512.917 794.165 468.373 763.74C447.846 749.72 335.615 579.737 318.679 563.128C257.03 477.473 243.317 377.652 283.45 299.207C291.568 283.258 301.894 269.027 313.476 255.374C254.74 324.474 303.797 441.645 367.146 517.19C456.737 624.17 602.992 687.311 745.587 640.483C680.628 716.535 493.528 712.94 523.293 721.438L531.326 766.832Z" fill="#FF8FC5"/>
<g filter="url(#filter17_f_0_1)">
<path d="M542.877 747.307C495.305 736.938 524.468 774.64 479.924 744.215C459.397 730.195 347.166 560.213 330.229 543.603C268.581 457.949 254.867 358.127 295.001 279.682C303.118 263.733 313.445 249.503 325.026 235.85C266.291 304.95 313.93 464.655 377.279 540.199C466.87 647.18 578.119 735.469 720.714 688.641C655.756 764.692 505.079 693.416 534.843 701.914L542.877 747.307Z" fill="#FF8FC5"/>
</g>
<g filter="url(#filter18_f_0_1)">
<path d="M542.877 747.307C495.305 736.938 524.468 774.64 479.924 744.215C459.397 730.195 347.166 560.213 330.229 543.603C268.581 457.949 254.867 358.127 295.001 279.682C303.118 263.733 313.445 249.503 325.026 235.85C266.291 304.95 313.93 464.655 377.279 540.199C466.87 647.18 578.119 735.469 720.714 688.641C655.756 764.692 505.079 693.416 534.843 701.914L542.877 747.307Z" fill="#FF8FC5"/>
</g>
<g filter="url(#filter19_f_0_1)">
<path d="M542.877 747.307C495.305 736.938 524.468 774.64 479.924 744.215C459.397 730.195 347.166 560.213 330.229 543.603C268.581 457.949 254.867 358.127 295.001 279.682C303.118 263.733 313.445 249.503 325.026 235.85C266.291 304.95 313.93 464.655 377.279 540.199C466.87 647.18 578.119 735.469 720.714 688.641C655.756 764.692 505.079 693.416 534.843 701.914L542.877 747.307Z" fill="#FF8FC5"/>
</g>
<g filter="url(#filter20_f_0_1)">
<path d="M542.877 747.307C495.305 736.938 524.468 774.64 479.924 744.215C459.397 730.195 347.166 560.213 330.229 543.603C268.581 457.949 254.867 358.127 295.001 279.682C303.118 263.733 313.445 249.503 325.026 235.85C266.291 304.95 292.006 460.22 355.355 535.764C444.946 642.745 578.119 735.469 720.714 688.641C655.756 764.692 505.079 693.416 534.843 701.914L542.877 747.307Z" fill="#FF8FC5"/>
</g>
<g filter="url(#filter21_f_0_1)">
<path d="M542.877 747.307C495.305 736.938 524.468 774.64 479.924 744.215C459.397 730.195 347.166 560.213 330.23 543.604C268.581 457.949 254.868 358.127 295.001 279.682C303.119 263.733 312.716 242.511 324.297 228.858C265.561 297.958 288.087 456.822 351.436 532.366C441.027 639.347 578.119 735.469 720.714 688.641C655.756 764.692 505.079 693.416 534.843 701.914L542.877 747.307Z" fill="#FF8FC5"/>
</g>
<g filter="url(#filter22_f_0_1)">
<path d="M531.326 766.832C483.754 756.463 512.917 794.165 468.373 763.74C447.846 749.72 344.51 577.155 327.573 560.546C265.925 474.892 243.317 377.652 283.45 299.207C291.568 283.258 301.894 269.027 313.476 255.374C254.74 324.474 300.437 446.565 363.786 522.109C453.377 629.09 581.488 718.795 724.082 671.967C659.124 748.019 493.528 712.94 523.293 721.438L531.326 766.832Z" fill="#FF8FC5"/>
</g>
<g filter="url(#filter23_f_0_1)">
<path d="M533.054 756.469C485.482 746.1 514.645 783.802 470.101 753.377C449.574 739.357 346.238 566.793 329.301 550.183C267.653 464.529 245.044 367.289 285.178 288.844C293.295 272.895 303.622 258.665 315.203 245.011C256.468 314.111 297.461 443.089 360.809 518.633C450.4 625.614 578.511 715.319 721.105 668.491C656.147 744.543 495.256 702.577 525.02 711.075L533.054 756.469Z" fill="#FF8FC5"/>
</g>
<g filter="url(#filter24_f_0_1)">
<path d="M539.517 752.227C491.945 741.857 521.108 779.559 476.564 749.135C456.037 735.114 352.701 562.55 335.764 545.941C274.116 460.286 251.507 363.046 291.641 284.601C299.759 268.652 310.085 254.422 321.666 240.769C262.931 309.869 293.043 457.387 356.392 532.931C445.983 639.912 574.094 729.617 716.688 682.789C651.73 758.841 501.719 698.335 531.483 706.833L539.517 752.227Z" fill="#FF8FC5"/>
</g>
<g filter="url(#filter25_f_0_1)">
<path d="M539.517 752.227C491.946 741.857 521.109 779.559 476.565 749.135C456.038 735.114 363.171 573.558 346.234 556.949C284.586 471.294 254.115 347.381 294.249 268.936C302.366 252.986 310.086 254.422 321.667 240.769C262.931 309.869 257.616 430.958 320.965 506.503C410.556 613.483 465.85 736.701 608.445 689.874C543.487 765.925 501.719 698.335 531.484 706.833L539.517 752.227Z" fill="#FF8FC5"/>
</g>
<g filter="url(#filter26_f_0_1)">
<path d="M539.517 752.227C491.946 741.857 521.109 779.559 476.565 749.135C456.038 735.114 352.056 549.373 335.119 532.764C273.471 447.109 254.115 347.381 294.249 268.936C302.366 252.986 310.086 254.422 321.667 240.769C262.931 309.869 278.109 428.362 341.458 503.907C431.049 610.887 465.85 736.701 608.445 689.874C543.487 765.925 501.719 698.335 531.484 706.833L539.517 752.227Z" fill="#FF8FC5"/>
</g>
</g>
</g>
</g>
<defs>
<filter id="filter0_f_0_1" x="407.224" y="41.1194" width="880.508" height="794.803" filterUnits="userSpaceOnUse" color-interpolation-filters="sRGB">
<feFlood flood-opacity="0" result="BackgroundImageFix"/>
<feBlend mode="normal" in="SourceGraphic" in2="BackgroundImageFix" result="shape"/>
<feGaussianBlur stdDeviation="6" result="effect1_foregroundBlur_0_1"/>
</filter>
<filter id="filter1_f_0_1" x="371.196" y="28.2202" width="936.653" height="849.258" filterUnits="userSpaceOnUse" color-interpolation-filters="sRGB">
<feFlood flood-opacity="0" result="BackgroundImageFix"/>
<feBlend mode="normal" in="SourceGraphic" in2="BackgroundImageFix" result="shape"/>
<feGaussianBlur stdDeviation="18" result="effect1_foregroundBlur_0_1"/>
</filter>
<filter id="filter2_f_0_1" x="355.196" y="12.2202" width="968.653" height="881.258" filterUnits="userSpaceOnUse" color-interpolation-filters="sRGB">
<feFlood flood-opacity="0" result="BackgroundImageFix"/>
<feBlend mode="normal" in="SourceGraphic" in2="BackgroundImageFix" result="shape"/>
<feGaussianBlur stdDeviation="26" result="effect1_foregroundBlur_0_1"/>
</filter>
<filter id="filter3_f_0_1" x="355.196" y="12.2202" width="968.653" height="881.258" filterUnits="userSpaceOnUse" color-interpolation-filters="sRGB">
<feFlood flood-opacity="0" result="BackgroundImageFix"/>
<feBlend mode="normal" in="SourceGraphic" in2="BackgroundImageFix" result="shape"/>
<feGaussianBlur stdDeviation="26" result="effect1_foregroundBlur_0_1"/>
</filter>
<filter id="filter4_f_0_1" x="283.196" y="-36.1499" width="1108.55" height="1001.63" filterUnits="userSpaceOnUse" color-interpolation-filters="sRGB">
<feFlood flood-opacity="0" result="BackgroundImageFix"/>
<feBlend mode="normal" in="SourceGraphic" in2="BackgroundImageFix" result="shape"/>
<feGaussianBlur stdDeviation="62" result="effect1_foregroundBlur_0_1"/>
</filter>
<filter id="filter5_f_0_1" x="317.316" y="12.6025" width="1061.15" height="916.275" filterUnits="userSpaceOnUse" color-interpolation-filters="sRGB">
<feFlood flood-opacity="0" result="BackgroundImageFix"/>
<feBlend mode="normal" in="SourceGraphic" in2="BackgroundImageFix" result="shape"/>
<feGaussianBlur stdDeviation="38" result="effect1_foregroundBlur_0_1"/>
</filter>
<filter id="filter6_f_0_1" x="229.316" y="-75.3975" width="1237.15" height="1092.28" filterUnits="userSpaceOnUse" color-interpolation-filters="sRGB">
<feFlood flood-opacity="0" result="BackgroundImageFix"/>
<feBlend mode="normal" in="SourceGraphic" in2="BackgroundImageFix" result="shape"/>
<feGaussianBlur stdDeviation="82" result="effect1_foregroundBlur_0_1"/>
</filter>
<filter id="filter7_f_0_1" x="149.316" y="-155.397" width="1397.15" height="1252.28" filterUnits="userSpaceOnUse" color-interpolation-filters="sRGB">
<feFlood flood-opacity="0" result="BackgroundImageFix"/>
<feBlend mode="normal" in="SourceGraphic" in2="BackgroundImageFix" result="shape"/>
<feGaussianBlur stdDeviation="122" result="effect1_foregroundBlur_0_1"/>
</filter>
<filter id="filter8_f_0_1" x="192.1" y="98.98" width="912.932" height="742.279" filterUnits="userSpaceOnUse" color-interpolation-filters="sRGB">
<feFlood flood-opacity="0" result="BackgroundImageFix"/>
<feBlend mode="normal" in="SourceGraphic" in2="BackgroundImageFix" result="shape"/>
<feGaussianBlur stdDeviation="6" result="effect1_foregroundBlur_0_1"/>
</filter>
<filter id="filter9_f_0_1" x="169.813" y="57.126" width="968.894" height="797.579" filterUnits="userSpaceOnUse" color-interpolation-filters="sRGB">
<feFlood flood-opacity="0" result="BackgroundImageFix"/>
<feBlend mode="normal" in="SourceGraphic" in2="BackgroundImageFix" result="shape"/>
<feGaussianBlur stdDeviation="18" result="effect1_foregroundBlur_0_1"/>
</filter>
<filter id="filter10_f_0_1" x="153.813" y="41.126" width="1000.89" height="829.579" filterUnits="userSpaceOnUse" color-interpolation-filters="sRGB">
<feFlood flood-opacity="0" result="BackgroundImageFix"/>
<feBlend mode="normal" in="SourceGraphic" in2="BackgroundImageFix" result="shape"/>
<feGaussianBlur stdDeviation="26" result="effect1_foregroundBlur_0_1"/>
</filter>
<filter id="filter11_f_0_1" x="153.813" y="41.126" width="1000.89" height="829.579" filterUnits="userSpaceOnUse" color-interpolation-filters="sRGB">
<feFlood flood-opacity="0" result="BackgroundImageFix"/>
<feBlend mode="normal" in="SourceGraphic" in2="BackgroundImageFix" result="shape"/>
<feGaussianBlur stdDeviation="26" result="effect1_foregroundBlur_0_1"/>
</filter>
<filter id="filter12_f_0_1" x="83.3762" y="-30.874" width="1143.33" height="943.211" filterUnits="userSpaceOnUse" color-interpolation-filters="sRGB">
<feFlood flood-opacity="0" result="BackgroundImageFix"/>
<feBlend mode="normal" in="SourceGraphic" in2="BackgroundImageFix" result="shape"/>
<feGaussianBlur stdDeviation="62" result="effect1_foregroundBlur_0_1"/>
</filter>
<filter id="filter13_f_0_1" x="93.2358" y="1.66138" width="1105.87" height="859.626" filterUnits="userSpaceOnUse" color-interpolation-filters="sRGB">
<feFlood flood-opacity="0" result="BackgroundImageFix"/>
<feBlend mode="normal" in="SourceGraphic" in2="BackgroundImageFix" result="shape"/>
<feGaussianBlur stdDeviation="38" result="effect1_foregroundBlur_0_1"/>
</filter>
<filter id="filter14_f_0_1" x="5.23584" y="-86.3386" width="1281.87" height="1035.63" filterUnits="userSpaceOnUse" color-interpolation-filters="sRGB">
<feFlood flood-opacity="0" result="BackgroundImageFix"/>
<feBlend mode="normal" in="SourceGraphic" in2="BackgroundImageFix" result="shape"/>
<feGaussianBlur stdDeviation="82" result="effect1_foregroundBlur_0_1"/>
</filter>
<filter id="filter15_f_0_1" x="-74.7642" y="-166.339" width="1441.87" height="1195.63" filterUnits="userSpaceOnUse" color-interpolation-filters="sRGB">
<feFlood flood-opacity="0" result="BackgroundImageFix"/>
<feBlend mode="normal" in="SourceGraphic" in2="BackgroundImageFix" result="shape"/>
<feGaussianBlur stdDeviation="122" result="effect1_foregroundBlur_0_1"/>
</filter>
<filter id="filter16_f_0_1" x="255.786" y="223.944" width="258.024" height="556.836" filterUnits="userSpaceOnUse" color-interpolation-filters="sRGB">
<feFlood flood-opacity="0" result="BackgroundImageFix"/>
<feBlend mode="normal" in="SourceGraphic" in2="BackgroundImageFix" result="shape"/>
<feGaussianBlur stdDeviation="2.45719" result="effect1_foregroundBlur_0_1"/>
</filter>
<filter id="filter17_f_0_1" x="267.336" y="230.935" width="458.292" height="530.32" filterUnits="userSpaceOnUse" color-interpolation-filters="sRGB">
<feFlood flood-opacity="0" result="BackgroundImageFix"/>
<feBlend mode="normal" in="SourceGraphic" in2="BackgroundImageFix" result="shape"/>
<feGaussianBlur stdDeviation="2.45719" result="effect1_foregroundBlur_0_1"/>
</filter>
<filter id="filter18_f_0_1" x="220.158" y="183.757" width="552.648" height="624.676" filterUnits="userSpaceOnUse" color-interpolation-filters="sRGB">
<feFlood flood-opacity="0" result="BackgroundImageFix"/>
<feBlend mode="normal" in="SourceGraphic" in2="BackgroundImageFix" result="shape"/>
<feGaussianBlur stdDeviation="26.0462" result="effect1_foregroundBlur_0_1"/>
</filter>
<filter id="filter19_f_0_1" x="243.747" y="207.346" width="505.47" height="577.498" filterUnits="userSpaceOnUse" color-interpolation-filters="sRGB">
<feFlood flood-opacity="0" result="BackgroundImageFix"/>
<feBlend mode="normal" in="SourceGraphic" in2="BackgroundImageFix" result="shape"/>
<feGaussianBlur stdDeviation="14.2517" result="effect1_foregroundBlur_0_1"/>
</filter>
<filter id="filter20_f_0_1" x="243.747" y="207.346" width="505.47" height="577.498" filterUnits="userSpaceOnUse" color-interpolation-filters="sRGB">
<feFlood flood-opacity="0" result="BackgroundImageFix"/>
<feBlend mode="normal" in="SourceGraphic" in2="BackgroundImageFix" result="shape"/>
<feGaussianBlur stdDeviation="14.2517" result="effect1_foregroundBlur_0_1"/>
</filter>
<filter id="filter21_f_0_1" x="243.748" y="200.355" width="505.47" height="584.489" filterUnits="userSpaceOnUse" color-interpolation-filters="sRGB">
<feFlood flood-opacity="0" result="BackgroundImageFix"/>
<feBlend mode="normal" in="SourceGraphic" in2="BackgroundImageFix" result="shape"/>
<feGaussianBlur stdDeviation="14.2517" result="effect1_foregroundBlur_0_1"/>
</filter>
<filter id="filter22_f_0_1" x="250.563" y="242.597" width="486.296" height="546.046" filterUnits="userSpaceOnUse" color-interpolation-filters="sRGB">
<feFlood flood-opacity="0" result="BackgroundImageFix"/>
<feBlend mode="normal" in="SourceGraphic" in2="BackgroundImageFix" result="shape"/>
<feGaussianBlur stdDeviation="6.38869" result="effect1_foregroundBlur_0_1"/>
</filter>
<filter id="filter23_f_0_1" x="250.325" y="230.268" width="485.524" height="549.978" filterUnits="userSpaceOnUse" color-interpolation-filters="sRGB">
<feFlood flood-opacity="0" result="BackgroundImageFix"/>
<feBlend mode="normal" in="SourceGraphic" in2="BackgroundImageFix" result="shape"/>
<feGaussianBlur stdDeviation="7.37157" result="effect1_foregroundBlur_0_1"/>
</filter>
<filter id="filter24_f_0_1" x="263.668" y="232.906" width="460.883" height="536.217" filterUnits="userSpaceOnUse" color-interpolation-filters="sRGB">
<feFlood flood-opacity="0" result="BackgroundImageFix"/>
<feBlend mode="normal" in="SourceGraphic" in2="BackgroundImageFix" result="shape"/>
<feGaussianBlur stdDeviation="3.9315" result="effect1_foregroundBlur_0_1"/>
</filter>
<filter id="filter25_f_0_1" x="251.918" y="217.18" width="380.117" height="567.669" filterUnits="userSpaceOnUse" color-interpolation-filters="sRGB">
<feFlood flood-opacity="0" result="BackgroundImageFix"/>
<feBlend mode="normal" in="SourceGraphic" in2="BackgroundImageFix" result="shape"/>
<feGaussianBlur stdDeviation="11.7945" result="effect1_foregroundBlur_0_1"/>
</filter>
<filter id="filter26_f_0_1" x="249.64" y="217.18" width="382.394" height="567.669" filterUnits="userSpaceOnUse" color-interpolation-filters="sRGB">
<feFlood flood-opacity="0" result="BackgroundImageFix"/>
<feBlend mode="normal" in="SourceGraphic" in2="BackgroundImageFix" result="shape"/>
<feGaussianBlur stdDeviation="11.7945" result="effect1_foregroundBlur_0_1"/>
</filter>
<linearGradient id="paint0_linear_0_1" x1="596" y1="386.119" x2="596" y2="1591.12" gradientUnits="userSpaceOnUse">
<stop stop-color="#C4C4C4" stop-opacity="0"/>
<stop offset="0.380208" stop-color="#C4C4C4"/>
<stop offset="0.578125" stop-color="#C4C4C4"/>
<stop offset="1" stop-color="#C4C4C4" stop-opacity="0"/>
</linearGradient>
<linearGradient id="paint1_linear_0_1" x1="1757.87" y1="416.825" x2="1757.87" y2="1621.82" gradientUnits="userSpaceOnUse">
<stop stop-color="#C4C4C4" stop-opacity="0"/>
<stop offset="0.380208" stop-color="#C4C4C4"/>
<stop offset="0.578125" stop-color="#C4C4C4"/>
<stop offset="1" stop-color="#C4C4C4" stop-opacity="0"/>
</linearGradient>
<linearGradient id="paint2_linear_0_1" x1="452.028" y1="628.165" x2="395.781" y2="237.552" gradientUnits="userSpaceOnUse">
<stop stop-color="#C4C4C4" stop-opacity="0"/>
<stop offset="0.565737" stop-color="#C4C4C4"/>
<stop offset="1" stop-color="#C4C4C4" stop-opacity="0"/>
</linearGradient>
</defs>
</svg>
